/* XPM */
static char *result[] = {
/* columns rows colors chars-per-pixel */
"41 30 11 1 ",
"  c black",
". c #190E0E",
"X c #9C3600",
"o c #CE4C01",
"O c #219739",
"+ c #EF9662",
"@ c #CCBEB4",
"# c #FFA9B3",
"$ c #FFD4A8",
"% c #FFFFEB",
"& c None",
/* pixels */
"                                         ",
" &&&&&&&&&&&&&&& &&& &&&&&&&&&&&&&&&&&&&&",
" &&&&&&&&&&&&&& o & o &&&&&&&&&&&&&&&&&&&",
" &&&&&&&&&&&&& o#o Xoo &&&&&&&&&&&&&&&&&&",
" &&&&&&&&&&&&& o#o Xoo &&&&&&&&&&&&&&&&&&",
" &&&&&&&&&&&&& o#o Xoo &&&&&&&&&&&&&&&&&&",
" &&&&&&&&&&&&& o#o Xoo &&&&&&&&&&&&&&&&&&",
" &&&&&&&&&&&&&& o#o Xoo &&&&&&&&&&&&&&&&&",
" &&&&&&&&&&&&&& o#o Xoo &&&&&&&&&&&&&&&&&",
" &&&&&&&&&&&&&& o#o Xoo &&&&&&&&&&&&&&&&&",
" &&&&&&&&&&&&&&& oo  oo.&&&&&&&&&&&&&&&&&",
" &&&&&&&&&&&&&&&&.ooo o.&&&&&&&&&&&&&&&&&",
" &&&&&&&&&&&&&&&.oo.oooo.&&&&&&&&&&&&&&&&",
" &&&&&&&..&&&&&&.oo%.oo..&&&&&&&&&&&&&&&&",
" &&&&&&&.O.&&&&&.oo%OooO.&&&&&&&&&&&&&&&&",
" &&&&&&&&.O......oooo$.o.&&&&&&&&&&&&&&&&",
" &&&&&&&&&.Oooo.oo+%%%$$+.&&&&&&&&&&&&&&&",
" &&&&&&&&&&...oo...%@.$..&&&&&&&&&&&&&&&&",
" &&&&&&&&&&...ooo+@@%%.&&&&&&&&&&&&&&&&&&",
" &&&&&&&&&.Oooooo%%%..&&&&&&&&&&&&&&&&&&&",
" &&&&&&&&.O.........&&&&&&&&&&&&&&&&&&&&&",
" &&&&&&&.O.&&&&&&.@.&&&&&&&&&&&&&&&&&&&&&",
" &&&&&&&..&&&&&&&&..&&&&&&&&&&&&&&&&&&&&&",
" &&&&&&&&&&&&&&&&&&&&&&&&&&&&&&&&&&&&&&&&",
" &&&&&&&&&&&&&&&&&&&&&&&&&&&&&&&&&&&&&&&&",
" &&&&&&&&&&&&&&&&&&&&&&&&&&&&&&&&&&&&&&&&",
" &&&&&&&&&&&&&&&&&&&&&&&&&&&&&&&&&&&&&&&&",
" &&&&&&&&&&&&&&&&&&&&&&&&&&&&&&&&&&&&&&&&",
" &&&&&&&&&&&&&&&&&&&&&&&&&&&&&&&&&&&&&&&&",
" &&&&&&&&&&&&&&&&&&&&&&&&&&&&&&&&&&&&&&&&"
};
